<svg width="194" height="151" viewBox="0 0 194 151" fill="none" xmlns="http://www.w3.org/2000/svg">
<path d="M24.2496 143.257C22.5284 143.257 21.1802 142.714 20.2051 141.628C19.2299 140.542 18.7424 139.017 18.7424 137.052C18.7424 135.087 19.2447 133.546 20.2494 132.431C21.2614 131.315 22.6503 130.758 24.4159 130.758C25.4649 130.758 26.4622 130.939 27.4077 131.301L27.1085 132.287C26.0669 131.932 25.162 131.755 24.3937 131.755C22.9236 131.755 21.8044 132.209 21.0361 133.118C20.2752 134.027 19.8948 135.319 19.8948 136.996C19.8948 138.673 20.2752 139.97 21.0361 140.886C21.797 141.802 22.8608 142.26 24.2275 142.26C25.306 142.26 26.3218 142.064 27.2748 141.673V142.692C26.5139 143.069 25.5055 143.257 24.2496 143.257ZM35.8236 130.758C38.5569 130.758 39.9236 132.224 39.9236 135.157V143.036H38.8376V135.223C38.8376 134.019 38.5828 133.14 38.073 132.586C37.5707 132.032 36.7802 131.755 35.7017 131.755C34.2759 131.755 33.2232 132.117 32.5436 132.841C31.8713 133.565 31.5352 134.747 31.5352 136.387V143.036H30.4382V125.793H31.5352V131.279L31.4798 132.819H31.5574C32.0006 132.102 32.5657 131.581 33.2528 131.256C33.9398 130.924 34.7967 130.758 35.8236 130.758ZM44.594 126.58C44.823 126.58 45.0003 126.672 45.1259 126.857C45.2589 127.042 45.3254 127.304 45.3254 127.644C45.3254 127.976 45.2589 128.239 45.1259 128.431C45.0003 128.623 44.823 128.719 44.594 128.719C44.1286 128.719 43.8959 128.364 43.8959 127.655C43.8959 126.938 44.1286 126.58 44.594 126.58ZM45.1481 143.036H44.051V130.99H45.1481V143.036ZM49.6745 131.711C50.9968 131.09 52.3117 130.78 53.6193 130.78C54.9343 130.78 55.9168 131.127 56.5669 131.821C57.217 132.509 57.542 133.576 57.542 135.024V143.036H56.7331L56.4561 141.13H56.3674C55.7543 141.913 55.13 142.463 54.4947 142.781C53.8668 143.098 53.1133 143.257 52.2342 143.257C51.0522 143.257 50.1288 142.958 49.4639 142.36C48.8064 141.754 48.4777 140.889 48.4777 139.767C48.4777 138.636 48.969 137.746 49.9515 137.096C50.934 136.446 52.3524 136.102 54.2066 136.066L56.5004 135.999V135.201C56.5004 134.034 56.264 133.166 55.7912 132.597C55.3184 132.021 54.5538 131.733 53.4974 131.733C52.441 131.733 51.3034 132.043 50.0844 132.664L49.6745 131.711ZM49.6523 139.877C49.6523 140.631 49.8813 141.218 50.3393 141.639C50.8047 142.053 51.4585 142.26 52.3007 142.26C53.5861 142.26 54.5981 141.89 55.3369 141.152C56.083 140.413 56.4561 139.394 56.4561 138.093V136.908L54.3507 136.996C52.6589 137.078 51.4511 137.344 50.7272 137.794C50.0106 138.237 49.6523 138.932 49.6523 139.877ZM66.4232 130.758C66.9108 130.758 67.4575 130.809 68.0632 130.913L67.8527 131.977C67.3577 131.844 66.8369 131.777 66.2903 131.777C65.2634 131.777 64.4213 132.217 63.7638 133.096C63.1063 133.968 62.7776 135.065 62.7776 136.387V143.036H61.6806V130.99H62.6114L62.7222 133.162H62.7997C63.3095 132.261 63.8377 131.641 64.3843 131.301C64.9458 130.939 65.6254 130.758 66.4232 130.758ZM71.005 131.711C72.3274 131.09 73.6423 130.78 74.9499 130.78C76.2648 130.78 77.2474 131.127 77.8975 131.821C78.5475 132.509 78.8726 133.576 78.8726 135.024V143.036H78.0637L77.7866 141.13H77.698C77.0848 141.913 76.4606 142.463 75.8253 142.781C75.1974 143.098 74.4439 143.257 73.5648 143.257C72.3828 143.257 71.4594 142.958 70.7945 142.36C70.137 141.754 69.8083 140.889 69.8083 139.767C69.8083 138.636 70.2995 137.746 71.2821 137.096C72.2646 136.446 73.683 136.102 75.5372 136.066L77.831 135.999V135.201C77.831 134.034 77.5946 133.166 77.1218 132.597C76.649 132.021 75.8844 131.733 74.828 131.733C73.7716 131.733 72.634 132.043 71.415 132.664L71.005 131.711ZM70.9829 139.877C70.9829 140.631 71.2119 141.218 71.6699 141.639C72.1353 142.053 72.7891 142.26 73.6312 142.26C74.9166 142.26 75.9287 141.89 76.6675 141.152C77.4136 140.413 77.7866 139.394 77.7866 138.093V136.908L75.6812 136.996C73.9895 137.078 72.7817 137.344 72.0577 137.794C71.3412 138.237 70.9829 138.932 70.9829 139.877ZM101.322 130.758C102.652 130.758 103.642 131.116 104.292 131.833C104.942 132.542 105.267 133.65 105.267 135.157V143.036H104.181V135.135C104.181 133.968 103.952 133.114 103.494 132.575C103.044 132.028 102.342 131.755 101.389 131.755C100.148 131.755 99.2317 132.095 98.6407 132.774C98.0571 133.454 97.7653 134.522 97.7653 135.977V143.036H96.6462V134.802C96.6462 132.771 95.7153 131.755 93.8537 131.755C92.5905 131.755 91.6708 132.124 91.0945 132.863C90.5183 133.594 90.2302 134.769 90.2302 136.387V143.036H89.1332V130.99H90.0418L90.2745 132.641H90.341C90.6735 132.051 91.1426 131.589 91.7483 131.256C92.3615 130.924 93.0411 130.758 93.7872 130.758C95.6858 130.758 96.9047 131.471 97.444 132.896H97.4883C97.8798 132.209 98.4043 131.681 99.0618 131.312C99.7267 130.942 100.48 130.758 101.322 130.758ZM109.65 131.711C110.972 131.09 112.287 130.78 113.594 130.78C114.909 130.78 115.892 131.127 116.542 131.821C117.192 132.509 117.517 133.576 117.517 135.024V143.036H116.708L116.431 141.13H116.343C115.729 141.913 115.105 142.463 114.47 142.781C113.842 143.098 113.088 143.257 112.209 143.257C111.027 143.257 110.104 142.958 109.439 142.36C108.782 141.754 108.453 140.889 108.453 139.767C108.453 138.636 108.944 137.746 109.927 137.096C110.909 136.446 112.327 136.102 114.182 136.066L116.475 135.999V135.201C116.475 134.034 116.239 133.166 115.766 132.597C115.294 132.021 114.529 131.733 113.473 131.733C112.416 131.733 111.278 132.043 110.06 132.664L109.65 131.711ZM109.627 139.877C109.627 140.631 109.856 141.218 110.314 141.639C110.78 142.053 111.434 142.26 112.276 142.26C113.561 142.26 114.573 141.89 115.312 141.152C116.058 140.413 116.431 139.394 116.431 138.093V136.908L114.326 136.996C112.634 137.078 111.426 137.344 110.702 137.794C109.986 138.237 109.627 138.932 109.627 139.877ZM126.398 130.758C126.886 130.758 127.433 130.809 128.038 130.913L127.828 131.977C127.333 131.844 126.812 131.777 126.265 131.777C125.239 131.777 124.396 132.217 123.739 133.096C123.081 133.968 122.753 135.065 122.753 136.387V143.036H121.656V130.99H122.586L122.697 133.162H122.775C123.285 132.261 123.813 131.641 124.359 131.301C124.921 130.939 125.601 130.758 126.398 130.758ZM130.98 131.711C132.302 131.09 133.617 130.78 134.925 130.78C136.24 130.78 137.222 131.127 137.873 131.821C138.523 132.509 138.848 133.576 138.848 135.024V143.036H138.039L137.762 141.13H137.673C137.06 141.913 136.436 142.463 135.8 142.781C135.172 143.098 134.419 143.257 133.54 143.257C132.358 143.257 131.434 142.958 130.77 142.36C130.112 141.754 129.783 140.889 129.783 139.767C129.783 138.636 130.275 137.746 131.257 137.096C132.24 136.446 133.658 136.102 135.512 136.066L137.806 135.999V135.201C137.806 134.034 137.57 133.166 137.097 132.597C136.624 132.021 135.859 131.733 134.803 131.733C133.747 131.733 132.609 132.043 131.39 132.664L130.98 131.711ZM130.958 139.877C130.958 140.631 131.187 141.218 131.645 141.639C132.11 142.053 132.764 142.26 133.606 142.26C134.892 142.26 135.904 141.89 136.643 141.152C137.389 140.413 137.762 139.394 137.762 138.093V136.908L135.656 136.996C133.965 137.078 132.757 137.344 132.033 137.794C131.316 138.237 130.958 138.932 130.958 139.877ZM148.372 130.758C151.105 130.758 152.472 132.224 152.472 135.157V143.036H151.386V135.223C151.386 134.019 151.131 133.14 150.621 132.586C150.119 132.032 149.328 131.755 148.25 131.755C146.824 131.755 145.771 132.117 145.092 132.841C144.419 133.565 144.083 134.747 144.083 136.387V143.036H142.986V130.99H143.917L144.128 132.641H144.194C144.985 131.386 146.377 130.758 148.372 130.758ZM166.062 143.036H165.331L165.065 141.196H164.976C164.06 142.57 162.756 143.257 161.065 143.257C159.38 143.257 158.099 142.74 157.22 141.706C156.341 140.664 155.901 139.131 155.901 137.107C155.901 135.076 156.337 133.51 157.209 132.409C158.08 131.308 159.347 130.758 161.009 130.758C161.896 130.758 162.653 130.92 163.281 131.245C163.916 131.57 164.481 132.11 164.976 132.863H165.043C164.999 131.932 164.976 131.02 164.976 130.126V125.793H166.062V143.036ZM164.976 137.185V136.996C164.976 135.127 164.662 133.787 164.034 132.974C163.407 132.161 162.417 131.755 161.065 131.755C159.72 131.755 158.716 132.217 158.051 133.14C157.386 134.056 157.053 135.397 157.053 137.163C157.053 140.576 158.379 142.282 161.032 142.282C162.391 142.282 163.388 141.887 164.023 141.096C164.659 140.306 164.976 139.002 164.976 137.185ZM169.636 136.996C169.636 135.039 170.112 133.51 171.065 132.409C172.018 131.308 173.322 130.758 174.977 130.758C176.639 130.758 177.939 131.315 178.877 132.431C179.823 133.546 180.296 135.079 180.296 137.03C180.296 138.972 179.819 140.498 178.866 141.606C177.913 142.707 176.598 143.257 174.921 143.257C174.884 143.257 174.844 143.257 174.8 143.257C173.27 143.257 172.026 142.692 171.065 141.562C170.112 140.431 169.636 138.965 169.636 137.163C169.636 137.103 169.636 137.048 169.636 136.996ZM174.966 142.26C176.295 142.26 177.322 141.798 178.046 140.875C178.77 139.951 179.132 138.659 179.132 136.996C179.132 135.327 178.763 134.038 178.024 133.129C177.293 132.213 176.262 131.755 174.932 131.755C173.61 131.755 172.587 132.213 171.863 133.129C171.146 134.038 170.788 135.323 170.788 136.985C170.788 138.64 171.15 139.937 171.874 140.875C172.605 141.798 173.636 142.26 174.966 142.26Z" fill="white"/>
<path d="M132.704 33.0142C114.47 14.781 84.9085 14.781 66.6753 33.0142C48.442 51.2474 48.442 80.8093 66.6753 99.0426C84.9085 117.276 114.47 117.276 132.704 99.0426" stroke="#17ACA2" stroke-width="8.51025" stroke-linecap="round" stroke-linejoin="round"/>
<path d="M99.6895 83.388V48.6686L117.049 66.0283L134.409 48.6686V83.388" stroke="white" stroke-width="8.51025" stroke-linecap="round" stroke-linejoin="round"/>
<path d="M33.6612 89.8778L4.25513 65.4171L33.6612 42.2059" stroke="white" stroke-width="8.51025" stroke-linecap="round" stroke-linejoin="round"/>
<path d="M160.14 89.8778L189.546 65.4171L160.14 42.2059" stroke="white" stroke-width="8.51025" stroke-linecap="round" stroke-linejoin="round"/>
</svg>
